G04 start of page 2 for group 0 idx 0 *
G04 Title: (unknown), component *
G04 Creator: pcb 20110918 *
G04 CreationDate: Sun 03 Feb 2013 11:35:48 PM GMT UTC *
G04 For: petersen *
G04 Format: Gerber/RS-274X *
G04 PCB-Dimensions: 175000 175000 *
G04 PCB-Coordinate-Origin: lower left *
%MOIN*%
%FSLAX25Y25*%
%LNTOP*%
%ADD23C,0.1280*%
%ADD22C,0.0350*%
%ADD21C,0.0380*%
%ADD20C,0.0360*%
%ADD19R,0.0197X0.0197*%
%ADD18R,0.0117X0.0117*%
%ADD17R,0.0512X0.0512*%
%ADD16C,0.1440*%
%ADD15C,0.0700*%
%ADD14C,0.0600*%
%ADD13C,0.0200*%
%ADD12C,0.0100*%
%ADD11C,0.0001*%
G54D11*G36*
X78000Y93000D02*Y82000D01*
X76000D01*
Y84998D01*
X76078Y85005D01*
X76155Y85023D01*
X76228Y85053D01*
X76295Y85094D01*
X76355Y85145D01*
X76406Y85205D01*
X76447Y85272D01*
X76477Y85345D01*
X76495Y85422D01*
X76500Y85500D01*
Y89500D01*
X76495Y89578D01*
X76477Y89655D01*
X76447Y89728D01*
X76406Y89795D01*
X76355Y89855D01*
X76295Y89906D01*
X76228Y89947D01*
X76155Y89977D01*
X76078Y89995D01*
X76000Y90002D01*
Y93000D01*
X78000D01*
G37*
G36*
X76000Y82000D02*X72500D01*
Y83500D01*
X74500D01*
X74578Y83505D01*
X74655Y83523D01*
X74728Y83553D01*
X74795Y83594D01*
X74855Y83645D01*
X74906Y83705D01*
X74947Y83772D01*
X74977Y83845D01*
X74995Y83922D01*
X75002Y84000D01*
X74995Y84078D01*
X74977Y84155D01*
X74947Y84228D01*
X74906Y84295D01*
X74855Y84355D01*
X74795Y84406D01*
X74728Y84447D01*
X74655Y84477D01*
X74578Y84495D01*
X74500Y84500D01*
X72500D01*
Y90500D01*
X74500D01*
X74578Y90505D01*
X74655Y90523D01*
X74728Y90553D01*
X74795Y90594D01*
X74855Y90645D01*
X74906Y90705D01*
X74947Y90772D01*
X74977Y90845D01*
X74995Y90922D01*
X75002Y91000D01*
X74995Y91078D01*
X74977Y91155D01*
X74947Y91228D01*
X74906Y91295D01*
X74855Y91355D01*
X74795Y91406D01*
X74728Y91447D01*
X74655Y91477D01*
X74578Y91495D01*
X74500Y91500D01*
X72500D01*
Y93000D01*
X76000D01*
Y90002D01*
X75922Y89995D01*
X75845Y89977D01*
X75772Y89947D01*
X75705Y89906D01*
X75645Y89855D01*
X75594Y89795D01*
X75553Y89728D01*
X75523Y89655D01*
X75505Y89578D01*
X75500Y89500D01*
Y85500D01*
X75505Y85422D01*
X75523Y85345D01*
X75553Y85272D01*
X75594Y85205D01*
X75645Y85145D01*
X75705Y85094D01*
X75772Y85053D01*
X75845Y85023D01*
X75922Y85005D01*
X76000Y84998D01*
Y82000D01*
G37*
G36*
X72500D02*X69000D01*
Y84998D01*
X69078Y85005D01*
X69155Y85023D01*
X69228Y85053D01*
X69295Y85094D01*
X69355Y85145D01*
X69406Y85205D01*
X69447Y85272D01*
X69477Y85345D01*
X69495Y85422D01*
X69500Y85500D01*
Y89500D01*
X69495Y89578D01*
X69477Y89655D01*
X69447Y89728D01*
X69406Y89795D01*
X69355Y89855D01*
X69295Y89906D01*
X69228Y89947D01*
X69155Y89977D01*
X69078Y89995D01*
X69000Y90002D01*
Y93000D01*
X72500D01*
Y91500D01*
X70500D01*
X70422Y91495D01*
X70345Y91477D01*
X70272Y91447D01*
X70205Y91406D01*
X70145Y91355D01*
X70094Y91295D01*
X70053Y91228D01*
X70023Y91155D01*
X70005Y91078D01*
X69998Y91000D01*
X70005Y90922D01*
X70023Y90845D01*
X70053Y90772D01*
X70094Y90705D01*
X70145Y90645D01*
X70205Y90594D01*
X70272Y90553D01*
X70345Y90523D01*
X70422Y90505D01*
X70500Y90500D01*
X72500D01*
Y84500D01*
X70500D01*
X70422Y84495D01*
X70345Y84477D01*
X70272Y84447D01*
X70205Y84406D01*
X70145Y84355D01*
X70094Y84295D01*
X70053Y84228D01*
X70023Y84155D01*
X70005Y84078D01*
X69998Y84000D01*
X70005Y83922D01*
X70023Y83845D01*
X70053Y83772D01*
X70094Y83705D01*
X70145Y83645D01*
X70205Y83594D01*
X70272Y83553D01*
X70345Y83523D01*
X70422Y83505D01*
X70500Y83500D01*
X72500D01*
Y82000D01*
G37*
G36*
X69000D02*X67000D01*
Y93000D01*
X69000D01*
Y90002D01*
X68922Y89995D01*
X68845Y89977D01*
X68772Y89947D01*
X68705Y89906D01*
X68645Y89855D01*
X68594Y89795D01*
X68553Y89728D01*
X68523Y89655D01*
X68505Y89578D01*
X68500Y89500D01*
Y85500D01*
X68505Y85422D01*
X68523Y85345D01*
X68553Y85272D01*
X68594Y85205D01*
X68645Y85145D01*
X68705Y85094D01*
X68772Y85053D01*
X68845Y85023D01*
X68922Y85005D01*
X69000Y84998D01*
Y82000D01*
G37*
G36*
X67000D02*X60500Y88500D01*
Y89500D01*
X68000D01*
Y82000D01*
X67000D01*
G37*
G36*
X81500Y82500D02*X79000Y80000D01*
X75001Y83999D01*
X75002Y84000D01*
X74995Y84078D01*
X74977Y84155D01*
X74947Y84228D01*
X74906Y84295D01*
X74855Y84355D01*
X74795Y84406D01*
X74728Y84447D01*
X74655Y84477D01*
X74578Y84495D01*
X74500Y84500D01*
X74000Y85000D01*
X75500Y86500D01*
Y85500D01*
X75505Y85422D01*
X75523Y85345D01*
X75553Y85272D01*
X75594Y85205D01*
X75645Y85145D01*
X75705Y85094D01*
X75772Y85053D01*
X75845Y85023D01*
X75922Y85005D01*
X76000Y84998D01*
X76078Y85005D01*
X76155Y85023D01*
X76228Y85053D01*
X76295Y85094D01*
X76355Y85145D01*
X76406Y85205D01*
X76447Y85272D01*
X76477Y85345D01*
X76495Y85422D01*
X76500Y85500D01*
Y87500D01*
X76500Y87500D01*
X81500Y82500D01*
G37*
G36*
X85000Y79000D02*X82500Y76500D01*
X77500Y81500D01*
X80000Y84000D01*
X85000Y79000D01*
G37*
G36*
X30500Y87000D02*X56500D01*
Y82000D01*
X30500D01*
Y87000D01*
G37*
G36*
Y88500D02*Y93000D01*
X69500D01*
Y88500D01*
X69500D01*
Y89500D01*
X69495Y89578D01*
X69477Y89655D01*
X69447Y89728D01*
X69406Y89795D01*
X69355Y89855D01*
X69295Y89906D01*
X69228Y89947D01*
X69155Y89977D01*
X69078Y89995D01*
X69000Y90002D01*
X68922Y89995D01*
X68845Y89977D01*
X68772Y89947D01*
X68705Y89906D01*
X68645Y89855D01*
X68594Y89795D01*
X68553Y89728D01*
X68523Y89655D01*
X68505Y89578D01*
X68500Y89500D01*
Y88500D01*
X30500D01*
G37*
G54D12*X95000Y77500D02*Y59000D01*
X90500Y82500D02*X85000Y77000D01*
X88000Y54500D02*X92500Y50000D01*
Y39000D01*
X82500Y50000D02*Y39000D01*
X52500Y50000D02*X82500D01*
X53500Y52000D02*X76500D01*
X79000Y54500D01*
X88000D01*
X49000Y79254D02*Y53500D01*
X50970Y79254D02*Y54530D01*
X49000Y53500D02*X52500Y50000D01*
X50970Y54530D02*X53500Y52000D01*
X92500Y107000D02*X85500Y114000D01*
X78500Y112000D02*X82500Y108000D01*
Y87500D01*
G54D13*X92500D02*X102500D01*
G54D12*X92500Y107000D02*Y87500D01*
X90500Y82500D02*X107500D01*
X45060Y95746D02*Y91000D01*
X52940Y84000D02*Y79254D01*
X26000Y78500D02*X29500Y75000D01*
X30246Y79254D02*X45060D01*
X30246D02*X28000Y81500D01*
X47030Y79254D02*Y76530D01*
X45500Y75000D01*
X29500D02*X45500D01*
X28000Y106000D02*Y81500D01*
X33000Y114000D02*X26000Y107000D01*
Y78500D01*
X28000Y106000D02*X34000Y112000D01*
X52940Y105560D02*Y95746D01*
Y105560D02*X48500Y110000D01*
X50970Y104530D02*Y95746D01*
Y104530D02*X47500Y108000D01*
X49000Y102000D02*Y95746D01*
Y102000D02*X46500Y104500D01*
X33000Y107000D02*Y102500D01*
X47030Y98970D02*Y95746D01*
Y98970D02*X45000Y101000D01*
X42500D02*X45000D01*
X39500Y108000D02*X37500Y106000D01*
Y102500D01*
X33000Y114000D02*X85500D01*
X34000Y112000D02*X78500D01*
X39500Y108000D02*X47500D01*
X36000Y110000D02*X48500D01*
X36000D02*X33000Y107000D01*
X127532Y79500D02*X138000D01*
Y92500D02*Y82468D01*
X127500Y92500D02*Y82500D01*
X135000Y87500D02*X138000D01*
X127500D02*X130500D01*
X127532Y79500D02*X127500Y79532D01*
X119532D02*X127500D01*
X119532D02*X119500Y79500D01*
X115968Y95468D02*X138000D01*
X115968D02*X111500Y91000D01*
Y86500D01*
X107500Y82500D01*
G54D11*G36*
X69500Y90500D02*Y84500D01*
X75500D01*
Y90500D01*
X69500D01*
G37*
G54D14*X82500Y87500D03*
X92500D03*
X102500D03*
G54D11*G36*
X79500Y53000D02*Y47000D01*
X85500D01*
Y53000D01*
X79500D01*
G37*
G54D14*X92500Y50000D03*
G54D15*X100000Y67000D03*
X90000D03*
X95000Y77000D03*
G54D16*X107500Y102000D03*
G54D15*X85000Y77000D03*
X80000Y67000D03*
X75000Y77000D03*
G54D16*X67500Y102000D03*
G54D17*X83957Y39393D02*Y38607D01*
X91043Y39393D02*Y38607D01*
G54D18*X52940Y96895D02*Y94597D01*
G54D19*X127107Y95468D02*X127893D01*
X127107Y92500D02*X127893D01*
X137607Y95468D02*X138393D01*
X137607Y92500D02*X138393D01*
X137607Y79500D02*X138393D01*
X137607Y82468D02*X138393D01*
X127107Y79532D02*X127893D01*
X127107Y82500D02*X127893D01*
G54D18*X45060Y80403D02*Y78105D01*
X47030Y80403D02*Y78105D01*
X49000Y80403D02*Y78105D01*
X50970Y80403D02*Y78105D01*
X52940Y80403D02*Y78105D01*
X50970Y96895D02*Y94597D01*
X49000Y96895D02*Y94597D01*
X47030Y96895D02*Y94597D01*
X45060Y96895D02*Y94597D01*
G54D17*X33064Y91043D02*X33850D01*
X33064Y83957D02*X33850D01*
G54D20*X53000Y84500D03*
X47500D03*
X46500Y104500D03*
X42500Y101000D03*
X37500Y102500D03*
X33000D03*
X95000Y59000D03*
X119500Y79500D03*
X130500Y87500D03*
X135000D03*
G54D13*G54D21*G54D22*G54D23*G54D22*G54D23*M02*
