G04 start of page 9 for group -4079 idx -4079 *
G04 Title: (unknown), topsilk *
G04 Creator: pcb 4.0.2 *
G04 CreationDate: Mon Jan 25 18:06:35 2021 UTC *
G04 For: ndholmes *
G04 Format: Gerber/RS-274X *
G04 PCB-Dimensions (mil): 950.00 1050.00 *
G04 PCB-Coordinate-Origin: lower left *
%MOIN*%
%FSLAX25Y25*%
%LNTOPSILK*%
%ADD30C,0.0060*%
%ADD29C,0.0100*%
G54D29*X23000Y34500D02*Y31500D01*
X21500Y33000D02*X24500D01*
X10500Y94500D02*X84500D01*
Y10500D01*
X10500D01*
Y94500D01*
G54D30*X71500Y81500D02*Y80200D01*
X70800Y79500D02*X71500Y80200D01*
X68200Y79500D02*X70800D01*
X68200D02*X67500Y80200D01*
Y81500D02*Y80200D01*
X68500Y82700D02*X71500D01*
X68500D02*X67500Y83400D01*
Y84500D02*Y83400D01*
Y84500D02*X68500Y85200D01*
X71500D01*
X69500D02*Y82700D01*
X67500Y86400D02*X71500D01*
Y88400D02*Y86400D01*
G54D29*X15245Y42893D02*Y42107D01*
X20755Y42893D02*Y42107D01*
X15245Y25893D02*Y25107D01*
X20755Y25893D02*Y25107D01*
X47107Y65255D02*X47893D01*
X47107Y59745D02*X47893D01*
X12000Y93000D02*X31000D01*
X12000D02*Y56000D01*
X31000D01*
Y93000D02*Y77000D01*
Y72000D02*Y56000D01*
Y77000D02*G75*G03X31000Y72000I0J-2500D01*G01*
X74063Y90890D02*Y77110D01*
X81937Y90890D02*Y77110D01*
X26500Y40250D02*X68500D01*
X26500D02*Y11500D01*
X68500Y40250D02*Y11500D01*
G54D30*X15936Y53380D02*X17476D01*
X17861Y52995D01*
Y52225D01*
X17476Y51840D02*X17861Y52225D01*
X16321Y51840D02*X17476D01*
X16321Y53380D02*Y50300D01*
X16937Y51840D02*X17861Y50300D01*
X18785Y52764D02*X19401Y53380D01*
Y50300D01*
X18785D02*X19940D01*
X16735Y17880D02*Y14800D01*
X17736Y17880D02*X18275Y17341D01*
Y15339D01*
X17736Y14800D02*X18275Y15339D01*
X16350Y14800D02*X17736D01*
X16350Y17880D02*X17736D01*
X19199Y17264D02*X19815Y17880D01*
Y14800D01*
X19199D02*X20354D01*
X33000Y73000D02*Y69500D01*
X33500Y69000D01*
X34500D01*
X35000Y69500D01*
Y73000D02*Y69500D01*
X36200Y72200D02*X37000Y73000D01*
Y69000D01*
X36200D02*X37700D01*
X76000Y67000D02*X76500Y67500D01*
X76000Y67000D02*Y65500D01*
X76500Y65000D02*X76000Y65500D01*
X76500Y65000D02*X77500D01*
X78000Y65500D01*
Y67000D02*Y65500D01*
Y67000D02*X78500Y67500D01*
X79500D01*
X80000Y67000D02*X79500Y67500D01*
X80000Y67000D02*Y65500D01*
X79500Y65000D02*X80000Y65500D01*
X76000Y68700D02*X78000D01*
X80000Y69200D01*
X78000Y70200D01*
X80000Y71200D01*
X78000Y71700D01*
X76000D02*X78000D01*
X76800Y72900D02*X76000Y73700D01*
X80000D01*
Y74400D02*Y72900D01*
X56093Y60650D02*X57393D01*
X55393Y61350D02*X56093Y60650D01*
X55393Y63950D02*Y61350D01*
Y63950D02*X56093Y64650D01*
X57393D01*
X58593Y63850D02*X59393Y64650D01*
Y60650D01*
X58593D02*X60093D01*
X57606Y76000D02*X58406D01*
Y72500D01*
X57906Y72000D02*X58406Y72500D01*
X57406Y72000D02*X57906D01*
X56906Y72500D02*X57406Y72000D01*
X56906Y73000D02*Y72500D01*
X59606Y75200D02*X60406Y76000D01*
Y72000D01*
X59606D02*X61106D01*
X71200Y19000D02*X72000D01*
Y15500D01*
X71500Y15000D02*X72000Y15500D01*
X71000Y15000D02*X71500D01*
X70500Y15500D02*X71000Y15000D01*
X70500Y16000D02*Y15500D01*
X73200Y18500D02*X73700Y19000D01*
X75200D01*
X75700Y18500D01*
Y17500D01*
X73200Y15000D02*X75700Y17500D01*
X73200Y15000D02*X75700D01*
M02*
