G04 start of page 7 for group -4063 idx -4063 *
G04 Title: (unknown), componentmask *
G04 Creator: pcb 4.0.2 *
G04 CreationDate: Mon Jan 25 18:06:35 2021 UTC *
G04 For: ndholmes *
G04 Format: Gerber/RS-274X *
G04 PCB-Dimensions (mil): 950.00 1050.00 *
G04 PCB-Coordinate-Origin: lower left *
%MOIN*%
%FSLAX25Y25*%
%LNTOPMASK*%
%ADD26C,0.0001*%
%ADD25C,0.0490*%
G54D25*X76000Y38500D03*
X80000Y58500D03*
X72000D03*
G54D26*G36*
X74747Y78985D02*Y76220D01*
X81253D01*
Y78985D01*
X74747D01*
G37*
G36*
Y91780D02*Y89015D01*
X81253D01*
Y91780D01*
X74747D01*
G37*
G36*
X61186Y94599D02*X55862D01*
Y86913D01*
X61186D01*
Y94599D01*
G37*
G36*
X46816Y65752D02*X41098D01*
Y59248D01*
X46816D01*
Y65752D01*
G37*
G36*
X30500Y66000D02*X27500D01*
Y56500D01*
X30500D01*
Y66000D01*
G37*
G36*
X53902Y65752D02*X48184D01*
Y59248D01*
X53902D01*
Y65752D01*
G37*
G36*
X54887Y78851D02*X51925D01*
Y72149D01*
X54887D01*
Y78851D01*
G37*
G36*
X50950D02*X47988D01*
Y72149D01*
X50950D01*
Y78851D01*
G37*
G36*
X47012D02*X44050D01*
Y72149D01*
X47012D01*
Y78851D01*
G37*
G36*
X43075D02*X40113D01*
Y72149D01*
X43075D01*
Y78851D01*
G37*
G36*
X39138Y94599D02*X33814D01*
Y86913D01*
X39138D01*
Y94599D01*
G37*
G36*
X30500Y92500D02*X27500D01*
Y83000D01*
X30500D01*
Y92500D01*
G37*
G36*
X25500D02*X22500D01*
Y83000D01*
X25500D01*
Y92500D01*
G37*
G36*
X20500D02*X17500D01*
Y83000D01*
X20500D01*
Y92500D01*
G37*
G36*
X15500D02*X12500D01*
Y83000D01*
X15500D01*
Y92500D01*
G37*
G36*
Y66000D02*X12500D01*
Y56500D01*
X15500D01*
Y66000D01*
G37*
G36*
X20500D02*X17500D01*
Y56500D01*
X20500D01*
Y66000D01*
G37*
G36*
X25500D02*X22500D01*
Y56500D01*
X25500D01*
Y66000D01*
G37*
G36*
X14748Y41816D02*Y36098D01*
X21252D01*
Y41816D01*
X14748D01*
G37*
G36*
Y48902D02*Y43184D01*
X21252D01*
Y48902D01*
X14748D01*
G37*
G36*
Y24816D02*Y19098D01*
X21252D01*
Y24816D01*
X14748D01*
G37*
G36*
Y31902D02*Y26184D01*
X21252D01*
Y31902D01*
X14748D01*
G37*
G36*
X34850Y55550D02*X30150D01*
Y47450D01*
X34850D01*
Y55550D01*
G37*
G36*
X44850D02*X40150D01*
Y47450D01*
X44850D01*
Y55550D01*
G37*
G36*
X54850D02*X50150D01*
Y47450D01*
X54850D01*
Y55550D01*
G37*
G36*
X64850D02*X60150D01*
Y47450D01*
X64850D01*
Y55550D01*
G37*
M02*
