G04 start of page 13 for group -3984 idx -3984 *
G04 Title: (unknown), fab *
G04 Creator: pcb 4.0.2 *
G04 CreationDate: Mon Jan 25 18:06:35 2021 UTC *
G04 For: ndholmes *
G04 Format: Gerber/RS-274X *
G04 PCB-Dimensions (mil): 950.00 1050.00 *
G04 PCB-Coordinate-Origin: lower left *
%MOIN*%
%FSLAX25Y25*%
%LNFAB*%
%ADD36C,0.0100*%
%ADD35C,0.0075*%
%ADD34C,0.0060*%
%ADD33R,0.0080X0.0080*%
G54D33*X76000Y40100D02*Y36900D01*
X74400Y38500D02*X77600D01*
X80000Y60100D02*Y56900D01*
X78400Y58500D02*X81600D01*
X72000Y60100D02*Y56900D01*
X70400Y58500D02*X73600D01*
X15000Y147850D02*Y144650D01*
X13400Y146250D02*X16600D01*
G54D34*X140000Y148500D02*Y142500D01*
Y148500D02*X143750Y142500D01*
Y148500D02*Y142500D01*
X145550Y147750D02*Y143250D01*
Y147750D02*X146300Y148500D01*
X147800D01*
X148550Y147750D01*
Y143250D01*
X147800Y142500D02*X148550Y143250D01*
X146300Y142500D02*X147800D01*
X145550Y143250D02*X146300Y142500D01*
X98000Y147750D02*X98750Y148500D01*
X100250D01*
X101000Y147750D01*
X100250Y142500D02*X101000Y143250D01*
X98750Y142500D02*X100250D01*
X98000Y143250D02*X98750Y142500D01*
Y145800D02*X100250D01*
X101000Y147750D02*Y146550D01*
Y145050D02*Y143250D01*
Y145050D02*X100250Y145800D01*
X101000Y146550D02*X100250Y145800D01*
X45000Y143250D02*X45750Y142500D01*
X45000Y147750D02*Y143250D01*
Y147750D02*X45750Y148500D01*
X47250D01*
X48000Y147750D01*
Y143250D01*
X47250Y142500D02*X48000Y143250D01*
X45750Y142500D02*X47250D01*
X45000Y144000D02*X48000Y147000D01*
X49800Y142500D02*X50550D01*
X52350Y143250D02*X53100Y142500D01*
X52350Y147750D02*Y143250D01*
Y147750D02*X53100Y148500D01*
X54600D01*
X55350Y147750D01*
Y143250D01*
X54600Y142500D02*X55350Y143250D01*
X53100Y142500D02*X54600D01*
X52350Y144000D02*X55350Y147000D01*
X57150Y147750D02*X57900Y148500D01*
X59400D01*
X60150Y147750D01*
X59400Y142500D02*X60150Y143250D01*
X57900Y142500D02*X59400D01*
X57150Y143250D02*X57900Y142500D01*
Y145800D02*X59400D01*
X60150Y147750D02*Y146550D01*
Y145050D02*Y143250D01*
Y145050D02*X59400Y145800D01*
X60150Y146550D02*X59400Y145800D01*
X62700Y142500D02*X64950Y145500D01*
Y147750D02*Y145500D01*
X64200Y148500D02*X64950Y147750D01*
X62700Y148500D02*X64200D01*
X61950Y147750D02*X62700Y148500D01*
X61950Y147750D02*Y146250D01*
X62700Y145500D01*
X64950D01*
X23500Y46000D02*Y44400D01*
Y46000D02*X24887Y46800D01*
X23500Y46000D02*X22113Y46800D01*
X78000Y81500D02*Y79900D01*
Y81500D02*X79387Y82300D01*
X78000Y81500D02*X76613Y82300D01*
X19000Y81500D02*Y79900D01*
Y81500D02*X20387Y82300D01*
X19000Y81500D02*X17613Y82300D01*
X24000Y81500D02*Y79900D01*
Y81500D02*X25387Y82300D01*
X24000Y81500D02*X22613Y82300D01*
X29000Y81500D02*Y79900D01*
Y81500D02*X30387Y82300D01*
X29000Y81500D02*X27613Y82300D01*
X32500Y43000D02*Y41400D01*
Y43000D02*X33887Y43800D01*
X32500Y43000D02*X31113Y43800D01*
X14000Y54000D02*Y52400D01*
Y54000D02*X15387Y54800D01*
X14000Y54000D02*X12613Y54800D01*
X35500Y67000D02*Y65400D01*
Y67000D02*X36887Y67800D01*
X35500Y67000D02*X34113Y67800D01*
X76000Y62500D02*Y60900D01*
Y62500D02*X77387Y63300D01*
X76000Y62500D02*X74613Y63300D01*
X57500Y51500D02*Y49900D01*
Y51500D02*X58887Y52300D01*
X57500Y51500D02*X56113Y52300D01*
X15000Y161250D02*Y159650D01*
Y161250D02*X16387Y162050D01*
X15000Y161250D02*X13613Y162050D01*
X135000Y163500D02*X136500Y160500D01*
X138000Y163500D01*
X136500Y160500D02*Y157500D01*
X139800Y160800D02*X142050D01*
X139800Y157500D02*X142800D01*
X139800Y163500D02*Y157500D01*
Y163500D02*X142800D01*
X147600D02*X148350Y162750D01*
X145350Y163500D02*X147600D01*
X144600Y162750D02*X145350Y163500D01*
X144600Y162750D02*Y161250D01*
X145350Y160500D01*
X147600D01*
X148350Y159750D01*
Y158250D01*
X147600Y157500D02*X148350Y158250D01*
X145350Y157500D02*X147600D01*
X144600Y158250D02*X145350Y157500D01*
X98000Y162300D02*X99200Y163500D01*
Y157500D01*
X98000D02*X100250D01*
X102050Y158250D02*X102800Y157500D01*
X102050Y162750D02*Y158250D01*
Y162750D02*X102800Y163500D01*
X104300D01*
X105050Y162750D01*
Y158250D01*
X104300Y157500D02*X105050Y158250D01*
X102800Y157500D02*X104300D01*
X102050Y159000D02*X105050Y162000D01*
X45000Y158250D02*X45750Y157500D01*
X45000Y162750D02*Y158250D01*
Y162750D02*X45750Y163500D01*
X47250D01*
X48000Y162750D01*
Y158250D01*
X47250Y157500D02*X48000Y158250D01*
X45750Y157500D02*X47250D01*
X45000Y159000D02*X48000Y162000D01*
X49800Y157500D02*X50550D01*
X52350Y158250D02*X53100Y157500D01*
X52350Y162750D02*Y158250D01*
Y162750D02*X53100Y163500D01*
X54600D01*
X55350Y162750D01*
Y158250D01*
X54600Y157500D02*X55350Y158250D01*
X53100Y157500D02*X54600D01*
X52350Y159000D02*X55350Y162000D01*
X57150Y162300D02*X58350Y163500D01*
Y157500D01*
X57150D02*X59400D01*
X61200Y162750D02*X61950Y163500D01*
X64200D01*
X64950Y162750D01*
Y161250D01*
X61200Y157500D02*X64950Y161250D01*
X61200Y157500D02*X64950D01*
X3000Y178500D02*X3750Y177750D01*
X750Y178500D02*X3000D01*
X0Y177750D02*X750Y178500D01*
X0Y177750D02*Y176250D01*
X750Y175500D01*
X3000D01*
X3750Y174750D01*
Y173250D01*
X3000Y172500D02*X3750Y173250D01*
X750Y172500D02*X3000D01*
X0Y173250D02*X750Y172500D01*
X5550Y175500D02*Y173250D01*
X6300Y172500D01*
X8550Y175500D02*Y171000D01*
X7800Y170250D02*X8550Y171000D01*
X6300Y170250D02*X7800D01*
X5550Y171000D02*X6300Y170250D01*
Y172500D02*X7800D01*
X8550Y173250D01*
X11100Y174750D02*Y172500D01*
Y174750D02*X11850Y175500D01*
X12600D01*
X13350Y174750D01*
Y172500D01*
Y174750D02*X14100Y175500D01*
X14850D01*
X15600Y174750D01*
Y172500D01*
X10350Y175500D02*X11100Y174750D01*
X17400Y178500D02*Y172500D01*
Y173250D02*X18150Y172500D01*
X19650D01*
X20400Y173250D01*
Y174750D02*Y173250D01*
X19650Y175500D02*X20400Y174750D01*
X18150Y175500D02*X19650D01*
X17400Y174750D02*X18150Y175500D01*
X22200Y174750D02*Y173250D01*
Y174750D02*X22950Y175500D01*
X24450D01*
X25200Y174750D01*
Y173250D01*
X24450Y172500D02*X25200Y173250D01*
X22950Y172500D02*X24450D01*
X22200Y173250D02*X22950Y172500D01*
X27000Y178500D02*Y173250D01*
X27750Y172500D01*
X0Y169250D02*X29250D01*
X41750Y178500D02*Y172500D01*
X43700Y178500D02*X44750Y177450D01*
Y173550D01*
X43700Y172500D02*X44750Y173550D01*
X41000Y172500D02*X43700D01*
X41000Y178500D02*X43700D01*
G54D35*X46550Y177000D02*Y176850D01*
G54D34*Y174750D02*Y172500D01*
X50300Y175500D02*X51050Y174750D01*
X48800Y175500D02*X50300D01*
X48050Y174750D02*X48800Y175500D01*
X48050Y174750D02*Y173250D01*
X48800Y172500D01*
X51050Y175500D02*Y173250D01*
X51800Y172500D01*
X48800D02*X50300D01*
X51050Y173250D01*
X54350Y174750D02*Y172500D01*
Y174750D02*X55100Y175500D01*
X55850D01*
X56600Y174750D01*
Y172500D01*
Y174750D02*X57350Y175500D01*
X58100D01*
X58850Y174750D01*
Y172500D01*
X53600Y175500D02*X54350Y174750D01*
X60650Y172500D02*X61400D01*
X65900Y173250D02*X66650Y172500D01*
X65900Y177750D02*X66650Y178500D01*
X65900Y177750D02*Y173250D01*
X68450Y178500D02*X69950D01*
X69200D02*Y172500D01*
X68450D02*X69950D01*
X72500Y174750D02*Y172500D01*
Y174750D02*X73250Y175500D01*
X74000D01*
X74750Y174750D01*
Y172500D01*
X71750Y175500D02*X72500Y174750D01*
X77300Y175500D02*X79550D01*
X76550Y174750D02*X77300Y175500D01*
X76550Y174750D02*Y173250D01*
X77300Y172500D01*
X79550D01*
X81350Y178500D02*Y172500D01*
Y174750D02*X82100Y175500D01*
X83600D01*
X84350Y174750D01*
Y172500D01*
X86150Y178500D02*X86900Y177750D01*
Y173250D01*
X86150Y172500D02*X86900Y173250D01*
X41000Y169250D02*X88700D01*
X96050Y172500D02*X98000D01*
X95000Y173550D02*X96050Y172500D01*
X95000Y177450D02*Y173550D01*
Y177450D02*X96050Y178500D01*
X98000D01*
X99800Y174750D02*Y173250D01*
Y174750D02*X100550Y175500D01*
X102050D01*
X102800Y174750D01*
Y173250D01*
X102050Y172500D02*X102800Y173250D01*
X100550Y172500D02*X102050D01*
X99800Y173250D02*X100550Y172500D01*
X104600Y175500D02*Y173250D01*
X105350Y172500D01*
X106850D01*
X107600Y173250D01*
Y175500D02*Y173250D01*
X110150Y174750D02*Y172500D01*
Y174750D02*X110900Y175500D01*
X111650D01*
X112400Y174750D01*
Y172500D01*
X109400Y175500D02*X110150Y174750D01*
X114950Y178500D02*Y173250D01*
X115700Y172500D01*
X114200Y176250D02*X115700D01*
X95000Y169250D02*X117200D01*
X130750Y178500D02*Y172500D01*
X130000Y178500D02*X133000D01*
X133750Y177750D01*
Y176250D01*
X133000Y175500D02*X133750Y176250D01*
X130750Y175500D02*X133000D01*
X135550Y178500D02*Y173250D01*
X136300Y172500D01*
X140050Y175500D02*X140800Y174750D01*
X138550Y175500D02*X140050D01*
X137800Y174750D02*X138550Y175500D01*
X137800Y174750D02*Y173250D01*
X138550Y172500D01*
X140800Y175500D02*Y173250D01*
X141550Y172500D01*
X138550D02*X140050D01*
X140800Y173250D01*
X144100Y178500D02*Y173250D01*
X144850Y172500D01*
X143350Y176250D02*X144850D01*
X147100Y172500D02*X149350D01*
X146350Y173250D02*X147100Y172500D01*
X146350Y174750D02*Y173250D01*
Y174750D02*X147100Y175500D01*
X148600D01*
X149350Y174750D01*
X146350Y174000D02*X149350D01*
Y174750D02*Y174000D01*
X154150Y178500D02*Y172500D01*
X153400D02*X154150Y173250D01*
X151900Y172500D02*X153400D01*
X151150Y173250D02*X151900Y172500D01*
X151150Y174750D02*Y173250D01*
Y174750D02*X151900Y175500D01*
X153400D01*
X154150Y174750D01*
X157450Y175500D02*Y174750D01*
Y173250D02*Y172500D01*
X155950Y177750D02*Y177000D01*
Y177750D02*X156700Y178500D01*
X158200D01*
X158950Y177750D01*
Y177000D01*
X157450Y175500D02*X158950Y177000D01*
X130000Y169250D02*X160750D01*
X0Y193500D02*X3000D01*
X1500D02*Y187500D01*
X4800Y193500D02*Y187500D01*
Y189750D02*X5550Y190500D01*
X7050D01*
X7800Y189750D01*
Y187500D01*
X10350D02*X12600D01*
X9600Y188250D02*X10350Y187500D01*
X9600Y189750D02*Y188250D01*
Y189750D02*X10350Y190500D01*
X11850D01*
X12600Y189750D01*
X9600Y189000D02*X12600D01*
Y189750D02*Y189000D01*
X15150Y189750D02*Y187500D01*
Y189750D02*X15900Y190500D01*
X17400D01*
X14400D02*X15150Y189750D01*
X19950Y187500D02*X22200D01*
X19200Y188250D02*X19950Y187500D01*
X19200Y189750D02*Y188250D01*
Y189750D02*X19950Y190500D01*
X21450D01*
X22200Y189750D01*
X19200Y189000D02*X22200D01*
Y189750D02*Y189000D01*
X28950Y190500D02*X29700Y189750D01*
X27450Y190500D02*X28950D01*
X26700Y189750D02*X27450Y190500D01*
X26700Y189750D02*Y188250D01*
X27450Y187500D01*
X29700Y190500D02*Y188250D01*
X30450Y187500D01*
X27450D02*X28950D01*
X29700Y188250D01*
X33000Y189750D02*Y187500D01*
Y189750D02*X33750Y190500D01*
X35250D01*
X32250D02*X33000Y189750D01*
X37800Y187500D02*X40050D01*
X37050Y188250D02*X37800Y187500D01*
X37050Y189750D02*Y188250D01*
Y189750D02*X37800Y190500D01*
X39300D01*
X40050Y189750D01*
X37050Y189000D02*X40050D01*
Y189750D02*Y189000D01*
X44550Y192750D02*X45300Y193500D01*
X47550D01*
X48300Y192750D01*
Y191250D01*
X44550Y187500D02*X48300Y191250D01*
X44550Y187500D02*X48300D01*
X55800Y193500D02*Y187500D01*
X55050D02*X55800Y188250D01*
X53550Y187500D02*X55050D01*
X52800Y188250D02*X53550Y187500D01*
X52800Y189750D02*Y188250D01*
Y189750D02*X53550Y190500D01*
X55050D01*
X55800Y189750D01*
G54D35*X57600Y192000D02*Y191850D01*
G54D34*Y189750D02*Y187500D01*
X59850Y192750D02*Y187500D01*
Y192750D02*X60600Y193500D01*
X61350D01*
X59100Y190500D02*X60600D01*
X63600Y192750D02*Y187500D01*
Y192750D02*X64350Y193500D01*
X65100D01*
X62850Y190500D02*X64350D01*
X67350Y187500D02*X69600D01*
X66600Y188250D02*X67350Y187500D01*
X66600Y189750D02*Y188250D01*
Y189750D02*X67350Y190500D01*
X68850D01*
X69600Y189750D01*
X66600Y189000D02*X69600D01*
Y189750D02*Y189000D01*
X72150Y189750D02*Y187500D01*
Y189750D02*X72900Y190500D01*
X74400D01*
X71400D02*X72150Y189750D01*
X76950Y187500D02*X79200D01*
X76200Y188250D02*X76950Y187500D01*
X76200Y189750D02*Y188250D01*
Y189750D02*X76950Y190500D01*
X78450D01*
X79200Y189750D01*
X76200Y189000D02*X79200D01*
Y189750D02*Y189000D01*
X81750Y189750D02*Y187500D01*
Y189750D02*X82500Y190500D01*
X83250D01*
X84000Y189750D01*
Y187500D01*
X81000Y190500D02*X81750Y189750D01*
X86550Y193500D02*Y188250D01*
X87300Y187500D01*
X85800Y191250D02*X87300D01*
X94500Y193500D02*Y187500D01*
X93750D02*X94500Y188250D01*
X92250Y187500D02*X93750D01*
X91500Y188250D02*X92250Y187500D01*
X91500Y189750D02*Y188250D01*
Y189750D02*X92250Y190500D01*
X93750D01*
X94500Y189750D01*
X97050D02*Y187500D01*
Y189750D02*X97800Y190500D01*
X99300D01*
X96300D02*X97050Y189750D01*
G54D35*X101100Y192000D02*Y191850D01*
G54D34*Y189750D02*Y187500D01*
X102600Y193500D02*Y188250D01*
X103350Y187500D01*
X104850Y193500D02*Y188250D01*
X105600Y187500D01*
X110550D02*X112800D01*
X113550Y188250D01*
X112800Y189000D02*X113550Y188250D01*
X110550Y189000D02*X112800D01*
X109800Y189750D02*X110550Y189000D01*
X109800Y189750D02*X110550Y190500D01*
X112800D01*
X113550Y189750D01*
X109800Y188250D02*X110550Y187500D01*
G54D35*X115350Y192000D02*Y191850D01*
G54D34*Y189750D02*Y187500D01*
X116850Y190500D02*X119850D01*
X116850Y187500D02*X119850Y190500D01*
X116850Y187500D02*X119850D01*
X122400D02*X124650D01*
X121650Y188250D02*X122400Y187500D01*
X121650Y189750D02*Y188250D01*
Y189750D02*X122400Y190500D01*
X123900D01*
X124650Y189750D01*
X121650Y189000D02*X124650D01*
Y189750D02*Y189000D01*
X127200Y187500D02*X129450D01*
X130200Y188250D01*
X129450Y189000D02*X130200Y188250D01*
X127200Y189000D02*X129450D01*
X126450Y189750D02*X127200Y189000D01*
X126450Y189750D02*X127200Y190500D01*
X129450D01*
X130200Y189750D01*
X126450Y188250D02*X127200Y187500D01*
X134700Y190500D02*Y188250D01*
X135450Y187500D01*
X136950D01*
X137700Y188250D01*
Y190500D02*Y188250D01*
X140250Y187500D02*X142500D01*
X143250Y188250D01*
X142500Y189000D02*X143250Y188250D01*
X140250Y189000D02*X142500D01*
X139500Y189750D02*X140250Y189000D01*
X139500Y189750D02*X140250Y190500D01*
X142500D01*
X143250Y189750D01*
X139500Y188250D02*X140250Y187500D01*
X145800D02*X148050D01*
X145050Y188250D02*X145800Y187500D01*
X145050Y189750D02*Y188250D01*
Y189750D02*X145800Y190500D01*
X147300D01*
X148050Y189750D01*
X145050Y189000D02*X148050D01*
Y189750D02*Y189000D01*
X152850Y193500D02*Y187500D01*
X152100D02*X152850Y188250D01*
X150600Y187500D02*X152100D01*
X149850Y188250D02*X150600Y187500D01*
X149850Y189750D02*Y188250D01*
Y189750D02*X150600Y190500D01*
X152100D01*
X152850Y189750D01*
G54D35*X157350Y192000D02*Y191850D01*
G54D34*Y189750D02*Y187500D01*
X159600Y189750D02*Y187500D01*
Y189750D02*X160350Y190500D01*
X161100D01*
X161850Y189750D01*
Y187500D01*
X158850Y190500D02*X159600Y189750D01*
X167100Y193500D02*Y188250D01*
X167850Y187500D01*
X166350Y191250D02*X167850D01*
X169350Y193500D02*Y187500D01*
Y189750D02*X170100Y190500D01*
X171600D01*
X172350Y189750D01*
Y187500D01*
G54D35*X174150Y192000D02*Y191850D01*
G54D34*Y189750D02*Y187500D01*
X176400D02*X178650D01*
X179400Y188250D01*
X178650Y189000D02*X179400Y188250D01*
X176400Y189000D02*X178650D01*
X175650Y189750D02*X176400Y189000D01*
X175650Y189750D02*X176400Y190500D01*
X178650D01*
X179400Y189750D01*
X175650Y188250D02*X176400Y187500D01*
X183900Y193500D02*Y188250D01*
X184650Y187500D01*
X188400Y190500D02*X189150Y189750D01*
X186900Y190500D02*X188400D01*
X186150Y189750D02*X186900Y190500D01*
X186150Y189750D02*Y188250D01*
X186900Y187500D01*
X189150Y190500D02*Y188250D01*
X189900Y187500D01*
X186900D02*X188400D01*
X189150Y188250D01*
X191700Y190500D02*Y188250D01*
X192450Y187500D01*
X194700Y190500D02*Y186000D01*
X193950Y185250D02*X194700Y186000D01*
X192450Y185250D02*X193950D01*
X191700Y186000D02*X192450Y185250D01*
Y187500D02*X193950D01*
X194700Y188250D01*
X196500Y189750D02*Y188250D01*
Y189750D02*X197250Y190500D01*
X198750D01*
X199500Y189750D01*
Y188250D01*
X198750Y187500D02*X199500Y188250D01*
X197250Y187500D02*X198750D01*
X196500Y188250D02*X197250Y187500D01*
X201300Y190500D02*Y188250D01*
X202050Y187500D01*
X203550D01*
X204300Y188250D01*
Y190500D02*Y188250D01*
X206850Y193500D02*Y188250D01*
X207600Y187500D01*
X206100Y191250D02*X207600D01*
X209100Y186000D02*X210600Y187500D01*
X215100Y192300D02*X216300Y193500D01*
Y187500D01*
X215100D02*X217350D01*
X219150Y192750D02*X219900Y193500D01*
X221400D01*
X222150Y192750D01*
X221400Y187500D02*X222150Y188250D01*
X219900Y187500D02*X221400D01*
X219150Y188250D02*X219900Y187500D01*
Y190800D02*X221400D01*
X222150Y192750D02*Y191550D01*
Y190050D02*Y188250D01*
Y190050D02*X221400Y190800D01*
X222150Y191550D02*X221400Y190800D01*
X226650Y193500D02*Y187500D01*
Y189750D02*X227400Y190500D01*
X228900D01*
X229650Y189750D01*
Y187500D01*
X231450Y189750D02*Y188250D01*
Y189750D02*X232200Y190500D01*
X233700D01*
X234450Y189750D01*
Y188250D01*
X233700Y187500D02*X234450Y188250D01*
X232200Y187500D02*X233700D01*
X231450Y188250D02*X232200Y187500D01*
X236250Y193500D02*Y188250D01*
X237000Y187500D01*
X239250D02*X241500D01*
X238500Y188250D02*X239250Y187500D01*
X238500Y189750D02*Y188250D01*
Y189750D02*X239250Y190500D01*
X240750D01*
X241500Y189750D01*
X238500Y189000D02*X241500D01*
Y189750D02*Y189000D01*
X244050Y187500D02*X246300D01*
X247050Y188250D01*
X246300Y189000D02*X247050Y188250D01*
X244050Y189000D02*X246300D01*
X243300Y189750D02*X244050Y189000D01*
X243300Y189750D02*X244050Y190500D01*
X246300D01*
X247050Y189750D01*
X243300Y188250D02*X244050Y187500D01*
X252300Y193500D02*Y188250D01*
X253050Y187500D01*
X251550Y191250D02*X253050D01*
X254550Y189750D02*Y188250D01*
Y189750D02*X255300Y190500D01*
X256800D01*
X257550Y189750D01*
Y188250D01*
X256800Y187500D02*X257550Y188250D01*
X255300Y187500D02*X256800D01*
X254550Y188250D02*X255300Y187500D01*
X260100Y193500D02*Y188250D01*
X260850Y187500D01*
X259350Y191250D02*X260850D01*
X264600Y190500D02*X265350Y189750D01*
X263100Y190500D02*X264600D01*
X262350Y189750D02*X263100Y190500D01*
X262350Y189750D02*Y188250D01*
X263100Y187500D01*
X265350Y190500D02*Y188250D01*
X266100Y187500D01*
X263100D02*X264600D01*
X265350Y188250D01*
X267900Y193500D02*Y188250D01*
X268650Y187500D01*
G54D36*X10000Y95000D02*X85000D01*
Y10000D01*
X10000D01*
Y95000D01*
G54D34*X0Y-9500D02*X3000D01*
X3750Y-8750D01*
Y-6950D02*Y-8750D01*
X3000Y-6200D02*X3750Y-6950D01*
X750Y-6200D02*X3000D01*
X750Y-3500D02*Y-9500D01*
X0Y-3500D02*X3000D01*
X3750Y-4250D01*
Y-5450D01*
X3000Y-6200D02*X3750Y-5450D01*
X5550Y-7250D02*Y-8750D01*
Y-7250D02*X6300Y-6500D01*
X7800D01*
X8550Y-7250D01*
Y-8750D01*
X7800Y-9500D02*X8550Y-8750D01*
X6300Y-9500D02*X7800D01*
X5550Y-8750D02*X6300Y-9500D01*
X12600Y-6500D02*X13350Y-7250D01*
X11100Y-6500D02*X12600D01*
X10350Y-7250D02*X11100Y-6500D01*
X10350Y-7250D02*Y-8750D01*
X11100Y-9500D01*
X13350Y-6500D02*Y-8750D01*
X14100Y-9500D01*
X11100D02*X12600D01*
X13350Y-8750D01*
X16650Y-7250D02*Y-9500D01*
Y-7250D02*X17400Y-6500D01*
X18900D01*
X15900D02*X16650Y-7250D01*
X23700Y-3500D02*Y-9500D01*
X22950D02*X23700Y-8750D01*
X21450Y-9500D02*X22950D01*
X20700Y-8750D02*X21450Y-9500D01*
X20700Y-7250D02*Y-8750D01*
Y-7250D02*X21450Y-6500D01*
X22950D01*
X23700Y-7250D01*
X28200D02*Y-8750D01*
Y-7250D02*X28950Y-6500D01*
X30450D01*
X31200Y-7250D01*
Y-8750D01*
X30450Y-9500D02*X31200Y-8750D01*
X28950Y-9500D02*X30450D01*
X28200Y-8750D02*X28950Y-9500D01*
X33000Y-6500D02*Y-8750D01*
X33750Y-9500D01*
X35250D01*
X36000Y-8750D01*
Y-6500D02*Y-8750D01*
X38550Y-3500D02*Y-8750D01*
X39300Y-9500D01*
X37800Y-5750D02*X39300D01*
X40800Y-3500D02*Y-8750D01*
X41550Y-9500D01*
G54D35*X43050Y-5000D02*Y-5150D01*
G54D34*Y-7250D02*Y-9500D01*
X45300Y-7250D02*Y-9500D01*
Y-7250D02*X46050Y-6500D01*
X46800D01*
X47550Y-7250D01*
Y-9500D01*
X44550Y-6500D02*X45300Y-7250D01*
X50100Y-9500D02*X52350D01*
X49350Y-8750D02*X50100Y-9500D01*
X49350Y-7250D02*Y-8750D01*
Y-7250D02*X50100Y-6500D01*
X51600D01*
X52350Y-7250D01*
X49350Y-8000D02*X52350D01*
Y-7250D02*Y-8000D01*
G54D35*X56850Y-5000D02*Y-5150D01*
G54D34*Y-7250D02*Y-9500D01*
X59100D02*X61350D01*
X62100Y-8750D01*
X61350Y-8000D02*X62100Y-8750D01*
X59100Y-8000D02*X61350D01*
X58350Y-7250D02*X59100Y-8000D01*
X58350Y-7250D02*X59100Y-6500D01*
X61350D01*
X62100Y-7250D01*
X58350Y-8750D02*X59100Y-9500D01*
X67350Y-3500D02*Y-8750D01*
X68100Y-9500D01*
X66600Y-5750D02*X68100D01*
X69600Y-3500D02*Y-9500D01*
Y-7250D02*X70350Y-6500D01*
X71850D01*
X72600Y-7250D01*
Y-9500D01*
X75150D02*X77400D01*
X74400Y-8750D02*X75150Y-9500D01*
X74400Y-7250D02*Y-8750D01*
Y-7250D02*X75150Y-6500D01*
X76650D01*
X77400Y-7250D01*
X74400Y-8000D02*X77400D01*
Y-7250D02*Y-8000D01*
X82650Y-6500D02*X84900D01*
X81900Y-7250D02*X82650Y-6500D01*
X81900Y-7250D02*Y-8750D01*
X82650Y-9500D01*
X84900D01*
X87450D02*X89700D01*
X86700Y-8750D02*X87450Y-9500D01*
X86700Y-7250D02*Y-8750D01*
Y-7250D02*X87450Y-6500D01*
X88950D01*
X89700Y-7250D01*
X86700Y-8000D02*X89700D01*
Y-7250D02*Y-8000D01*
X92250Y-7250D02*Y-9500D01*
Y-7250D02*X93000Y-6500D01*
X93750D01*
X94500Y-7250D01*
Y-9500D01*
X91500Y-6500D02*X92250Y-7250D01*
X97050Y-3500D02*Y-8750D01*
X97800Y-9500D01*
X96300Y-5750D02*X97800D01*
X100050Y-9500D02*X102300D01*
X99300Y-8750D02*X100050Y-9500D01*
X99300Y-7250D02*Y-8750D01*
Y-7250D02*X100050Y-6500D01*
X101550D01*
X102300Y-7250D01*
X99300Y-8000D02*X102300D01*
Y-7250D02*Y-8000D01*
X104850Y-7250D02*Y-9500D01*
Y-7250D02*X105600Y-6500D01*
X107100D01*
X104100D02*X104850Y-7250D01*
X108900Y-3500D02*Y-8750D01*
X109650Y-9500D01*
G54D35*X111150Y-5000D02*Y-5150D01*
G54D34*Y-7250D02*Y-9500D01*
X113400Y-7250D02*Y-9500D01*
Y-7250D02*X114150Y-6500D01*
X114900D01*
X115650Y-7250D01*
Y-9500D01*
X112650Y-6500D02*X113400Y-7250D01*
X118200Y-9500D02*X120450D01*
X117450Y-8750D02*X118200Y-9500D01*
X117450Y-7250D02*Y-8750D01*
Y-7250D02*X118200Y-6500D01*
X119700D01*
X120450Y-7250D01*
X117450Y-8000D02*X120450D01*
Y-7250D02*Y-8000D01*
X124950Y-7250D02*Y-8750D01*
Y-7250D02*X125700Y-6500D01*
X127200D01*
X127950Y-7250D01*
Y-8750D01*
X127200Y-9500D02*X127950Y-8750D01*
X125700Y-9500D02*X127200D01*
X124950Y-8750D02*X125700Y-9500D01*
X130500Y-4250D02*Y-9500D01*
Y-4250D02*X131250Y-3500D01*
X132000D01*
X129750Y-6500D02*X131250D01*
X136950Y-3500D02*Y-8750D01*
X137700Y-9500D01*
X136200Y-5750D02*X137700D01*
X139200Y-3500D02*Y-9500D01*
Y-7250D02*X139950Y-6500D01*
X141450D01*
X142200Y-7250D01*
Y-9500D01*
G54D35*X144000Y-5000D02*Y-5150D01*
G54D34*Y-7250D02*Y-9500D01*
X146250D02*X148500D01*
X149250Y-8750D01*
X148500Y-8000D02*X149250Y-8750D01*
X146250Y-8000D02*X148500D01*
X145500Y-7250D02*X146250Y-8000D01*
X145500Y-7250D02*X146250Y-6500D01*
X148500D01*
X149250Y-7250D01*
X145500Y-8750D02*X146250Y-9500D01*
X154500Y-7250D02*Y-11750D01*
X153750Y-6500D02*X154500Y-7250D01*
X155250Y-6500D01*
X156750D01*
X157500Y-7250D01*
Y-8750D01*
X156750Y-9500D02*X157500Y-8750D01*
X155250Y-9500D02*X156750D01*
X154500Y-8750D02*X155250Y-9500D01*
X161550Y-6500D02*X162300Y-7250D01*
X160050Y-6500D02*X161550D01*
X159300Y-7250D02*X160050Y-6500D01*
X159300Y-7250D02*Y-8750D01*
X160050Y-9500D01*
X162300Y-6500D02*Y-8750D01*
X163050Y-9500D01*
X160050D02*X161550D01*
X162300Y-8750D01*
X165600Y-3500D02*Y-8750D01*
X166350Y-9500D01*
X164850Y-5750D02*X166350D01*
X167850Y-3500D02*Y-9500D01*
Y-7250D02*X168600Y-6500D01*
X170100D01*
X170850Y-7250D01*
Y-9500D01*
X200750Y133500D02*Y127500D01*
X202700Y133500D02*X203750Y132450D01*
Y128550D01*
X202700Y127500D02*X203750Y128550D01*
X200000Y127500D02*X202700D01*
X200000Y133500D02*X202700D01*
X207800Y130500D02*X208550Y129750D01*
X206300Y130500D02*X207800D01*
X205550Y129750D02*X206300Y130500D01*
X205550Y129750D02*Y128250D01*
X206300Y127500D01*
X208550Y130500D02*Y128250D01*
X209300Y127500D01*
X206300D02*X207800D01*
X208550Y128250D01*
X211850Y133500D02*Y128250D01*
X212600Y127500D01*
X211100Y131250D02*X212600D01*
X214850Y127500D02*X217100D01*
X214100Y128250D02*X214850Y127500D01*
X214100Y129750D02*Y128250D01*
Y129750D02*X214850Y130500D01*
X216350D01*
X217100Y129750D01*
X214100Y129000D02*X217100D01*
Y129750D02*Y129000D01*
X218900Y131250D02*X219650D01*
X218900Y129750D02*X219650D01*
X224150Y133500D02*Y127500D01*
Y133500D02*X226400Y130500D01*
X228650Y133500D01*
Y127500D01*
X230450Y129750D02*Y128250D01*
Y129750D02*X231200Y130500D01*
X232700D01*
X233450Y129750D01*
Y128250D01*
X232700Y127500D02*X233450Y128250D01*
X231200Y127500D02*X232700D01*
X230450Y128250D02*X231200Y127500D01*
X236000Y129750D02*Y127500D01*
Y129750D02*X236750Y130500D01*
X237500D01*
X238250Y129750D01*
Y127500D01*
X235250Y130500D02*X236000Y129750D01*
X243800Y133500D02*X245000D01*
Y128250D01*
X244250Y127500D02*X245000Y128250D01*
X243500Y127500D02*X244250D01*
X242750Y128250D02*X243500Y127500D01*
X242750Y129000D02*Y128250D01*
X249050Y130500D02*X249800Y129750D01*
X247550Y130500D02*X249050D01*
X246800Y129750D02*X247550Y130500D01*
X246800Y129750D02*Y128250D01*
X247550Y127500D01*
X249800Y130500D02*Y128250D01*
X250550Y127500D01*
X247550D02*X249050D01*
X249800Y128250D01*
X253100Y129750D02*Y127500D01*
Y129750D02*X253850Y130500D01*
X254600D01*
X255350Y129750D01*
Y127500D01*
X252350Y130500D02*X253100Y129750D01*
X259850Y132750D02*X260600Y133500D01*
X262850D01*
X263600Y132750D01*
Y131250D01*
X259850Y127500D02*X263600Y131250D01*
X259850Y127500D02*X263600D01*
X265400Y133500D02*X268400D01*
X265400D02*Y130500D01*
X266150Y131250D01*
X267650D01*
X268400Y130500D01*
Y128250D01*
X267650Y127500D02*X268400Y128250D01*
X266150Y127500D02*X267650D01*
X265400Y128250D02*X266150Y127500D01*
X272900Y132300D02*X274100Y133500D01*
Y127500D01*
X272900D02*X275150D01*
X276950Y128250D02*X277700Y127500D01*
X276950Y129450D02*Y128250D01*
Y129450D02*X278000Y130500D01*
X278900D01*
X279950Y129450D01*
Y128250D01*
X279200Y127500D02*X279950Y128250D01*
X277700Y127500D02*X279200D01*
X276950Y131550D02*X278000Y130500D01*
X276950Y132750D02*Y131550D01*
Y132750D02*X277700Y133500D01*
X279200D01*
X279950Y132750D01*
Y131550D01*
X278900Y130500D02*X279950Y131550D01*
X281750Y131250D02*X282500D01*
X281750Y129750D02*X282500D01*
X284300Y128250D02*X285050Y127500D01*
X284300Y132750D02*Y128250D01*
Y132750D02*X285050Y133500D01*
X286550D01*
X287300Y132750D01*
Y128250D01*
X286550Y127500D02*X287300Y128250D01*
X285050Y127500D02*X286550D01*
X284300Y129000D02*X287300Y132000D01*
X291350Y133500D02*X292100Y132750D01*
X289850Y133500D02*X291350D01*
X289100Y132750D02*X289850Y133500D01*
X289100Y132750D02*Y128250D01*
X289850Y127500D01*
X291350Y130800D02*X292100Y130050D01*
X289100Y130800D02*X291350D01*
X289850Y127500D02*X291350D01*
X292100Y128250D01*
Y130050D02*Y128250D01*
X293900Y131250D02*X294650D01*
X293900Y129750D02*X294650D01*
X296450Y132750D02*X297200Y133500D01*
X298700D01*
X299450Y132750D01*
X298700Y127500D02*X299450Y128250D01*
X297200Y127500D02*X298700D01*
X296450Y128250D02*X297200Y127500D01*
Y130800D02*X298700D01*
X299450Y132750D02*Y131550D01*
Y130050D02*Y128250D01*
Y130050D02*X298700Y130800D01*
X299450Y131550D02*X298700Y130800D01*
X301250Y133500D02*X304250D01*
X301250D02*Y130500D01*
X302000Y131250D01*
X303500D01*
X304250Y130500D01*
Y128250D01*
X303500Y127500D02*X304250Y128250D01*
X302000Y127500D02*X303500D01*
X301250Y128250D02*X302000Y127500D01*
X308750Y132750D02*X309500Y133500D01*
X311750D01*
X312500Y132750D01*
Y131250D01*
X308750Y127500D02*X312500Y131250D01*
X308750Y127500D02*X312500D01*
X314300Y128250D02*X315050Y127500D01*
X314300Y132750D02*Y128250D01*
Y132750D02*X315050Y133500D01*
X316550D01*
X317300Y132750D01*
Y128250D01*
X316550Y127500D02*X317300Y128250D01*
X315050Y127500D02*X316550D01*
X314300Y129000D02*X317300Y132000D01*
X319100Y132750D02*X319850Y133500D01*
X322100D01*
X322850Y132750D01*
Y131250D01*
X319100Y127500D02*X322850Y131250D01*
X319100Y127500D02*X322850D01*
X324650Y132300D02*X325850Y133500D01*
Y127500D01*
X324650D02*X326900D01*
X331400Y133500D02*Y128250D01*
X332150Y127500D01*
X333650D01*
X334400Y128250D01*
Y133500D02*Y128250D01*
X336200Y133500D02*X339200D01*
X337700D02*Y127500D01*
X342050D02*X344000D01*
X341000Y128550D02*X342050Y127500D01*
X341000Y132450D02*Y128550D01*
Y132450D02*X342050Y133500D01*
X344000D01*
X200000Y147000D02*Y142500D01*
Y147000D02*X201050Y148500D01*
X202700D01*
X203750Y147000D01*
Y142500D01*
X200000Y145500D02*X203750D01*
X205550D02*Y143250D01*
X206300Y142500D01*
X207800D01*
X208550Y143250D01*
Y145500D02*Y143250D01*
X211100Y148500D02*Y143250D01*
X211850Y142500D01*
X210350Y146250D02*X211850D01*
X213350Y148500D02*Y142500D01*
Y144750D02*X214100Y145500D01*
X215600D01*
X216350Y144750D01*
Y142500D01*
X218150Y144750D02*Y143250D01*
Y144750D02*X218900Y145500D01*
X220400D01*
X221150Y144750D01*
Y143250D01*
X220400Y142500D02*X221150Y143250D01*
X218900Y142500D02*X220400D01*
X218150Y143250D02*X218900Y142500D01*
X223700Y144750D02*Y142500D01*
Y144750D02*X224450Y145500D01*
X225950D01*
X222950D02*X223700Y144750D01*
X227750Y146250D02*X228500D01*
X227750Y144750D02*X228500D01*
X233000Y148500D02*Y142500D01*
Y148500D02*X236750Y142500D01*
Y148500D02*Y142500D01*
X240800Y145500D02*X241550Y144750D01*
X239300Y145500D02*X240800D01*
X238550Y144750D02*X239300Y145500D01*
X238550Y144750D02*Y143250D01*
X239300Y142500D01*
X241550Y145500D02*Y143250D01*
X242300Y142500D01*
X239300D02*X240800D01*
X241550Y143250D01*
X244850Y148500D02*Y143250D01*
X245600Y142500D01*
X244100Y146250D02*X245600D01*
X247100Y148500D02*Y142500D01*
Y144750D02*X247850Y145500D01*
X249350D01*
X250100Y144750D01*
Y142500D01*
X254150Y145500D02*X254900Y144750D01*
X252650Y145500D02*X254150D01*
X251900Y144750D02*X252650Y145500D01*
X251900Y144750D02*Y143250D01*
X252650Y142500D01*
X254900Y145500D02*Y143250D01*
X255650Y142500D01*
X252650D02*X254150D01*
X254900Y143250D01*
X258200Y144750D02*Y142500D01*
Y144750D02*X258950Y145500D01*
X259700D01*
X260450Y144750D01*
Y142500D01*
X257450Y145500D02*X258200Y144750D01*
X265700Y148500D02*Y142500D01*
X267650Y148500D02*X268700Y147450D01*
Y143550D01*
X267650Y142500D02*X268700Y143550D01*
X264950Y142500D02*X267650D01*
X264950Y148500D02*X267650D01*
X270500Y142500D02*X271250D01*
X275750Y148500D02*Y142500D01*
X279500Y148500D02*Y142500D01*
X275750Y145500D02*X279500D01*
X281300Y144750D02*Y143250D01*
Y144750D02*X282050Y145500D01*
X283550D01*
X284300Y144750D01*
Y143250D01*
X283550Y142500D02*X284300Y143250D01*
X282050Y142500D02*X283550D01*
X281300Y143250D02*X282050Y142500D01*
X286100Y148500D02*Y143250D01*
X286850Y142500D01*
X289100Y144750D02*Y142500D01*
Y144750D02*X289850Y145500D01*
X290600D01*
X291350Y144750D01*
Y142500D01*
Y144750D02*X292100Y145500D01*
X292850D01*
X293600Y144750D01*
Y142500D01*
X288350Y145500D02*X289100Y144750D01*
X296150Y142500D02*X298400D01*
X295400Y143250D02*X296150Y142500D01*
X295400Y144750D02*Y143250D01*
Y144750D02*X296150Y145500D01*
X297650D01*
X298400Y144750D01*
X295400Y144000D02*X298400D01*
Y144750D02*Y144000D01*
X300950Y142500D02*X303200D01*
X303950Y143250D01*
X303200Y144000D02*X303950Y143250D01*
X300950Y144000D02*X303200D01*
X300200Y144750D02*X300950Y144000D01*
X300200Y144750D02*X300950Y145500D01*
X303200D01*
X303950Y144750D01*
X300200Y143250D02*X300950Y142500D01*
X200000Y163500D02*X203000D01*
X201500D02*Y157500D01*
G54D35*X204800Y162000D02*Y161850D01*
G54D34*Y159750D02*Y157500D01*
X207050Y163500D02*Y158250D01*
X207800Y157500D01*
X206300Y161250D02*X207800D01*
X209300Y163500D02*Y158250D01*
X210050Y157500D01*
X212300D02*X214550D01*
X211550Y158250D02*X212300Y157500D01*
X211550Y159750D02*Y158250D01*
Y159750D02*X212300Y160500D01*
X213800D01*
X214550Y159750D01*
X211550Y159000D02*X214550D01*
Y159750D02*Y159000D01*
X216350Y161250D02*X217100D01*
X216350Y159750D02*X217100D01*
X221600Y158250D02*X222350Y157500D01*
X221600Y162750D02*X222350Y163500D01*
X221600Y162750D02*Y158250D01*
X224150Y160500D02*Y158250D01*
X224900Y157500D01*
X226400D01*
X227150Y158250D01*
Y160500D02*Y158250D01*
X229700Y159750D02*Y157500D01*
Y159750D02*X230450Y160500D01*
X231200D01*
X231950Y159750D01*
Y157500D01*
X228950Y160500D02*X229700Y159750D01*
X233750Y163500D02*Y157500D01*
Y159750D02*X236000Y157500D01*
X233750Y159750D02*X235250Y161250D01*
X238550Y159750D02*Y157500D01*
Y159750D02*X239300Y160500D01*
X240050D01*
X240800Y159750D01*
Y157500D01*
X237800Y160500D02*X238550Y159750D01*
X242600D02*Y158250D01*
Y159750D02*X243350Y160500D01*
X244850D01*
X245600Y159750D01*
Y158250D01*
X244850Y157500D02*X245600Y158250D01*
X243350Y157500D02*X244850D01*
X242600Y158250D02*X243350Y157500D01*
X247400Y160500D02*Y158250D01*
X248150Y157500D01*
X248900D01*
X249650Y158250D01*
Y160500D02*Y158250D01*
X250400Y157500D01*
X251150D01*
X251900Y158250D01*
Y160500D02*Y158250D01*
X254450Y159750D02*Y157500D01*
Y159750D02*X255200Y160500D01*
X255950D01*
X256700Y159750D01*
Y157500D01*
X253700Y160500D02*X254450Y159750D01*
X258500Y163500D02*X259250Y162750D01*
Y158250D01*
X258500Y157500D02*X259250Y158250D01*
X263750Y160500D02*X266750D01*
X271250Y163500D02*Y157500D01*
Y163500D02*X274250D01*
X271250Y160800D02*X273500D01*
X278300Y160500D02*X279050Y159750D01*
X276800Y160500D02*X278300D01*
X276050Y159750D02*X276800Y160500D01*
X276050Y159750D02*Y158250D01*
X276800Y157500D01*
X279050Y160500D02*Y158250D01*
X279800Y157500D01*
X276800D02*X278300D01*
X279050Y158250D01*
X281600Y163500D02*Y157500D01*
Y158250D02*X282350Y157500D01*
X283850D01*
X284600Y158250D01*
Y159750D02*Y158250D01*
X283850Y160500D02*X284600Y159750D01*
X282350Y160500D02*X283850D01*
X281600Y159750D02*X282350Y160500D01*
X287150Y159750D02*Y157500D01*
Y159750D02*X287900Y160500D01*
X289400D01*
X286400D02*X287150Y159750D01*
G54D35*X291200Y162000D02*Y161850D01*
G54D34*Y159750D02*Y157500D01*
X293450Y160500D02*X295700D01*
X292700Y159750D02*X293450Y160500D01*
X292700Y159750D02*Y158250D01*
X293450Y157500D01*
X295700D01*
X299750Y160500D02*X300500Y159750D01*
X298250Y160500D02*X299750D01*
X297500Y159750D02*X298250Y160500D01*
X297500Y159750D02*Y158250D01*
X298250Y157500D01*
X300500Y160500D02*Y158250D01*
X301250Y157500D01*
X298250D02*X299750D01*
X300500Y158250D01*
X303800Y163500D02*Y158250D01*
X304550Y157500D01*
X303050Y161250D02*X304550D01*
G54D35*X306050Y162000D02*Y161850D01*
G54D34*Y159750D02*Y157500D01*
X307550Y159750D02*Y158250D01*
Y159750D02*X308300Y160500D01*
X309800D01*
X310550Y159750D01*
Y158250D01*
X309800Y157500D02*X310550Y158250D01*
X308300Y157500D02*X309800D01*
X307550Y158250D02*X308300Y157500D01*
X313100Y159750D02*Y157500D01*
Y159750D02*X313850Y160500D01*
X314600D01*
X315350Y159750D01*
Y157500D01*
X312350Y160500D02*X313100Y159750D01*
X320600Y163500D02*Y157500D01*
X322550Y163500D02*X323600Y162450D01*
Y158550D01*
X322550Y157500D02*X323600Y158550D01*
X319850Y157500D02*X322550D01*
X319850Y163500D02*X322550D01*
X326150Y159750D02*Y157500D01*
Y159750D02*X326900Y160500D01*
X328400D01*
X325400D02*X326150Y159750D01*
X332450Y160500D02*X333200Y159750D01*
X330950Y160500D02*X332450D01*
X330200Y159750D02*X330950Y160500D01*
X330200Y159750D02*Y158250D01*
X330950Y157500D01*
X333200Y160500D02*Y158250D01*
X333950Y157500D01*
X330950D02*X332450D01*
X333200Y158250D01*
X335750Y160500D02*Y158250D01*
X336500Y157500D01*
X337250D01*
X338000Y158250D01*
Y160500D02*Y158250D01*
X338750Y157500D01*
X339500D01*
X340250Y158250D01*
Y160500D02*Y158250D01*
G54D35*X342050Y162000D02*Y161850D01*
G54D34*Y159750D02*Y157500D01*
X344300Y159750D02*Y157500D01*
Y159750D02*X345050Y160500D01*
X345800D01*
X346550Y159750D01*
Y157500D01*
X343550Y160500D02*X344300Y159750D01*
X350600Y160500D02*X351350Y159750D01*
X349100Y160500D02*X350600D01*
X348350Y159750D02*X349100Y160500D01*
X348350Y159750D02*Y158250D01*
X349100Y157500D01*
X350600D01*
X351350Y158250D01*
X348350Y156000D02*X349100Y155250D01*
X350600D01*
X351350Y156000D01*
Y160500D02*Y156000D01*
M02*
