G04 start of page 10 for group -4078 idx -4078 *
G04 Title: (unknown), bottomsilk *
G04 Creator: pcb 4.0.2 *
G04 CreationDate: Mon Jan 25 18:06:35 2021 UTC *
G04 For: ndholmes *
G04 Format: Gerber/RS-274X *
G04 PCB-Dimensions (mil): 950.00 1050.00 *
G04 PCB-Coordinate-Origin: lower left *
%MOIN*%
%FSLAX25Y25*%
%LNBOTTOMSILK*%
%ADD31C,0.0060*%
G54D31*X60500Y88500D02*X61500D01*
X61000Y84500D02*Y88500D01*
X60500Y84500D02*X61500D01*
X59300Y88000D02*X58800Y88500D01*
X57300D02*X58800D01*
X57300D02*X56800Y88000D01*
Y87000D02*Y88000D01*
X59300Y84500D02*X56800Y87000D01*
Y84500D02*X59300D01*
X53600D02*X54900D01*
X55600Y85200D02*X54900Y84500D01*
X55600Y85200D02*Y87800D01*
X54900Y88500D01*
X53600D02*X54900D01*
X50400Y86500D02*X52400D01*
X47700Y86700D02*X49200D01*
X47200Y84500D02*X49200D01*
Y88500D01*
X47200D02*X49200D01*
X44000D02*X46000D01*
X45000Y84500D02*Y88500D01*
X42800Y84500D02*Y87500D01*
X42100Y88500D01*
X41000D02*X42100D01*
X41000D02*X40300Y87500D01*
Y84500D02*Y87500D01*
Y86500D02*X42800D01*
X38600Y84500D02*Y88500D01*
X37100D02*X39100D01*
X37100D02*X36600Y88000D01*
Y87000D02*Y88000D01*
X37100Y86500D02*X36600Y87000D01*
X37100Y86500D02*X38600D01*
X33900Y86700D02*X35400D01*
X33400Y84500D02*X35400D01*
Y88500D01*
X33400D02*X35400D01*
X53469Y79500D02*X52469Y77500D01*
X51469Y79500D02*X52469Y77500D01*
X50268Y81000D02*X49768Y81500D01*
X48268D02*X49768D01*
X48268D02*X47768Y81000D01*
Y80000D02*Y81000D01*
X50268Y77500D02*X47768Y80000D01*
Y77500D02*X50268D01*
X46068D02*X46568D01*
X44868Y78000D02*X44368Y77500D01*
X44868Y78000D02*Y81000D01*
X44368Y81500D01*
X43368D02*X44368D01*
X43368D02*X42868Y81000D01*
Y78000D02*Y81000D01*
X43368Y77500D02*X42868Y78000D01*
X43368Y77500D02*X44368D01*
X44868Y78500D02*X42868Y80500D01*
X78500Y74500D02*X79500D01*
X79000Y70500D02*Y74500D01*
X78500Y70500D02*X79500D01*
X77300Y71000D02*Y72000D01*
X76800Y72500D01*
X75800D02*X76800D01*
X75800D02*X75300Y72000D01*
Y71000D02*Y72000D01*
X75800Y70500D02*X75300Y71000D01*
X75800Y70500D02*X76800D01*
X77300Y71000D02*X76800Y70500D01*
X74100Y71000D02*Y72500D01*
Y71000D02*X73600Y70500D01*
X73100D02*X73600D01*
X73100D02*X72600Y71000D01*
Y72500D01*
Y71000D02*X72100Y70500D01*
X71600D02*X72100D01*
X71600D02*X71100Y71000D01*
Y72500D01*
X68400D02*X67900Y72000D01*
X68400Y72500D02*X69400D01*
X69900Y72000D02*X69400Y72500D01*
X69900Y71000D02*Y72000D01*
Y71000D02*X69400Y70500D01*
X67900Y71000D02*Y72500D01*
Y71000D02*X67400Y70500D01*
X68400D02*X69400D01*
X68400D02*X67900Y71000D01*
X62400Y74500D02*X61900Y74000D01*
X62400Y74500D02*X63900D01*
X64400Y74000D02*X63900Y74500D01*
X64400Y73000D02*Y74000D01*
Y73000D02*X63900Y72500D01*
X62400D02*X63900D01*
X62400D02*X61900Y72000D01*
Y71000D02*Y72000D01*
X62400Y70500D02*X61900Y71000D01*
X62400Y70500D02*X63900D01*
X64400Y71000D02*X63900Y70500D01*
X58700Y72500D02*X60200D01*
X60700Y72000D02*X60200Y72500D01*
X60700Y71000D02*Y72000D01*
Y71000D02*X60200Y70500D01*
X58700D02*X60200D01*
X56000Y72500D02*X55500Y72000D01*
X56000Y72500D02*X57000D01*
X57500Y72000D02*X57000Y72500D01*
X57500Y71000D02*Y72000D01*
Y71000D02*X57000Y70500D01*
X55500Y71000D02*Y72500D01*
Y71000D02*X55000Y70500D01*
X56000D02*X57000D01*
X56000D02*X55500Y71000D01*
X53800D02*Y74500D01*
Y71000D02*X53300Y70500D01*
X50300D02*X51800D01*
X52300Y71000D02*X51800Y70500D01*
X52300Y71000D02*Y72000D01*
X51800Y72500D01*
X50800D02*X51800D01*
X50800D02*X50300Y72000D01*
Y71500D02*X52300D01*
X50300D02*Y72000D01*
X47100Y70500D02*Y74500D01*
X47600Y70500D02*X47100Y71000D01*
X47600Y70500D02*X48600D01*
X49100Y71000D02*X48600Y70500D01*
X49100Y71000D02*Y72000D01*
X48600Y72500D01*
X47600D02*X48600D01*
X47600D02*X47100Y72000D01*
X42600Y72700D02*X44100D01*
X42100Y70500D02*X44100D01*
Y74500D01*
X42100D02*X44100D01*
X40400Y70500D02*Y72000D01*
X39900Y72500D01*
X39400D02*X39900D01*
X39400D02*X38900Y72000D01*
Y70500D02*Y72000D01*
X40900Y72500D02*X40400Y72000D01*
X36200Y72500D02*X35700Y72000D01*
X36200Y72500D02*X37200D01*
X37700Y72000D02*X37200Y72500D01*
X37700Y71000D02*Y72000D01*
Y71000D02*X37200Y70500D01*
X36200D02*X37200D01*
X36200D02*X35700Y71000D01*
X37700Y69500D02*X37200Y69000D01*
X36200D02*X37200D01*
X36200D02*X35700Y69500D01*
Y72500D01*
X34500Y73400D02*Y73500D01*
Y70500D02*Y72000D01*
X33000Y70500D02*Y72000D01*
X32500Y72500D01*
X32000D02*X32500D01*
X32000D02*X31500Y72000D01*
Y70500D02*Y72000D01*
X33500Y72500D02*X33000Y72000D01*
X28300Y70500D02*X29800D01*
X30300Y71000D02*X29800Y70500D01*
X30300Y71000D02*Y72000D01*
X29800Y72500D01*
X28800D02*X29800D01*
X28800D02*X28300Y72000D01*
Y71500D02*X30300D01*
X28300D02*Y72000D01*
X25100Y70500D02*X26600D01*
X27100Y71000D02*X26600Y70500D01*
X27100Y71000D02*Y72000D01*
X26600Y72500D01*
X25600D02*X26600D01*
X25600D02*X25100Y72000D01*
Y71500D02*X27100D01*
X25100D02*Y72000D01*
X23400Y70500D02*Y72000D01*
X22900Y72500D01*
X21900D02*X22900D01*
X23900D02*X23400Y72000D01*
X20700Y73400D02*Y73500D01*
Y70500D02*Y72000D01*
X19200Y70500D02*Y72000D01*
X18700Y72500D01*
X18200D02*X18700D01*
X18200D02*X17700Y72000D01*
Y70500D02*Y72000D01*
X19700Y72500D02*X19200Y72000D01*
X15000Y72500D02*X14500Y72000D01*
X15000Y72500D02*X16000D01*
X16500Y72000D02*X16000Y72500D01*
X16500Y71000D02*Y72000D01*
Y71000D02*X16000Y70500D01*
X15000D02*X16000D01*
X15000D02*X14500Y71000D01*
X16500Y69500D02*X16000Y69000D01*
X15000D02*X16000D01*
X15000D02*X14500Y69500D01*
Y72500D01*
X70000Y19000D02*X71300D01*
X72000Y19700D02*X71300Y19000D01*
X72000Y19700D02*Y22300D01*
X71300Y23000D01*
X70000D02*X71300D01*
X66800Y19000D02*X68100D01*
X68800Y19700D02*X68100Y19000D01*
X68800Y19700D02*Y22300D01*
X68100Y23000D01*
X66800D02*X68100D01*
X61800Y19000D02*X63800D01*
X61800D02*X61300Y19500D01*
Y20700D01*
X61800Y21200D02*X61300Y20700D01*
X61800Y21200D02*X63300D01*
Y19000D02*Y23000D01*
X61800D02*X63800D01*
X61800D02*X61300Y22500D01*
Y21700D02*Y22500D01*
X61800Y21200D02*X61300Y21700D01*
X60100Y23000D02*X59100Y21000D01*
X58100Y23000D01*
X59100Y19000D02*Y21000D01*
X54900D02*X56900D01*
X51700Y23000D02*X51200Y22500D01*
X51700Y23000D02*X53200D01*
X53700Y22500D02*X53200Y23000D01*
X53700Y21500D02*Y22500D01*
Y21500D02*X53200Y21000D01*
X51700D02*X53200D01*
X51700D02*X51200Y20500D01*
Y19500D02*Y20500D01*
X51700Y19000D02*X51200Y19500D01*
X51700Y19000D02*X53200D01*
X53700Y19500D02*X53200Y19000D01*
X50000D02*Y22000D01*
X49300Y23000D01*
X48200D02*X49300D01*
X48200D02*X47500Y22000D01*
Y19000D02*Y22000D01*
Y21000D02*X50000D01*
X44500Y19500D02*X44000Y19000D01*
X44500Y22500D02*X44000Y23000D01*
X44500Y19500D02*Y22500D01*
X40800Y19000D02*X42100D01*
X42800Y19700D02*X42100Y19000D01*
X42800Y19700D02*Y22300D01*
X42100Y23000D01*
X40800D02*X42100D01*
X39600D02*X39100Y22500D01*
Y19500D02*Y22500D01*
X39600Y19000D02*X39100Y19500D01*
X36100Y22500D02*X35600Y23000D01*
X34100D02*X35600D01*
X34100D02*X33600Y22500D01*
Y21500D02*Y22500D01*
X36100Y19000D02*X33600Y21500D01*
Y19000D02*X36100D01*
X32400Y19500D02*X31900Y19000D01*
X32400Y19500D02*Y22500D01*
X31900Y23000D01*
X30900D02*X31900D01*
X30900D02*X30400Y22500D01*
Y19500D02*Y22500D01*
X30900Y19000D02*X30400Y19500D01*
X30900Y19000D02*X31900D01*
X32400Y20000D02*X30400Y22000D01*
X29200Y22500D02*X28700Y23000D01*
X27200D02*X28700D01*
X27200D02*X26700Y22500D01*
Y21500D02*Y22500D01*
X29200Y19000D02*X26700Y21500D01*
Y19000D02*X29200D01*
X25500Y22200D02*X24700Y23000D01*
Y19000D02*Y23000D01*
X24000Y19000D02*X25500D01*
X68500Y41500D02*X69300D01*
X68500Y38000D02*Y41500D01*
X69000Y37500D02*X68500Y38000D01*
X69000Y37500D02*X69500D01*
X70000Y38000D02*X69500Y37500D01*
X70000Y38000D02*Y38500D01*
X67300Y41000D02*X66800Y41500D01*
X65800D02*X66800D01*
X65800D02*X65300Y41000D01*
X65800Y37500D02*X65300Y38000D01*
X65800Y37500D02*X66800D01*
X67300Y38000D02*X66800Y37500D01*
X65800Y39700D02*X66800D01*
X65300Y40200D02*Y41000D01*
Y38000D02*Y39200D01*
X65800Y39700D01*
X65300Y40200D02*X65800Y39700D01*
M02*
