G04 start of page 11 for group -4015 idx -4015 *
G04 Title: (unknown), toppaste *
G04 Creator: pcb 4.0.2 *
G04 CreationDate: Mon Jan 25 18:06:35 2021 UTC *
G04 For: ndholmes *
G04 Format: Gerber/RS-274X *
G04 PCB-Dimensions (mil): 950.00 1050.00 *
G04 PCB-Coordinate-Origin: lower left *
%MOIN*%
%FSLAX25Y25*%
%LNTOPPASTE*%
%ADD32C,0.0001*%
G54D32*G36*
X75047Y78685D02*Y76520D01*
X80953D01*
Y78685D01*
X75047D01*
G37*
G36*
Y91480D02*Y89315D01*
X80953D01*
Y91480D01*
X75047D01*
G37*
G36*
X15048Y41516D02*Y36398D01*
X20952D01*
Y41516D01*
X15048D01*
G37*
G36*
Y48602D02*Y43484D01*
X20952D01*
Y48602D01*
X15048D01*
G37*
G36*
Y24516D02*Y19398D01*
X20952D01*
Y24516D01*
X15048D01*
G37*
G36*
Y31602D02*Y26484D01*
X20952D01*
Y31602D01*
X15048D01*
G37*
G36*
X46516Y65452D02*X41398D01*
Y59548D01*
X46516D01*
Y65452D01*
G37*
G36*
X53602D02*X48484D01*
Y59548D01*
X53602D01*
Y65452D01*
G37*
G36*
X54587Y78551D02*X52225D01*
Y72449D01*
X54587D01*
Y78551D01*
G37*
G36*
X50650D02*X48288D01*
Y72449D01*
X50650D01*
Y78551D01*
G37*
G36*
X46712D02*X44350D01*
Y72449D01*
X46712D01*
Y78551D01*
G37*
G36*
X42775D02*X40413D01*
Y72449D01*
X42775D01*
Y78551D01*
G37*
G36*
X60886Y94299D02*X56162D01*
Y87213D01*
X60886D01*
Y94299D01*
G37*
G36*
X38838D02*X34114D01*
Y87213D01*
X38838D01*
Y94299D01*
G37*
G36*
X30000Y92000D02*X28000D01*
Y83500D01*
X30000D01*
Y92000D01*
G37*
G36*
X25000D02*X23000D01*
Y83500D01*
X25000D01*
Y92000D01*
G37*
G36*
X20000D02*X18000D01*
Y83500D01*
X20000D01*
Y92000D01*
G37*
G36*
X15000D02*X13000D01*
Y83500D01*
X15000D01*
Y92000D01*
G37*
G36*
Y65500D02*X13000D01*
Y57000D01*
X15000D01*
Y65500D01*
G37*
G36*
X20000D02*X18000D01*
Y57000D01*
X20000D01*
Y65500D01*
G37*
G36*
X25000D02*X23000D01*
Y57000D01*
X25000D01*
Y65500D01*
G37*
G36*
X30000D02*X28000D01*
Y57000D01*
X30000D01*
Y65500D01*
G37*
G36*
X34550Y55250D02*X30450D01*
Y47750D01*
X34550D01*
Y55250D01*
G37*
G36*
X44550D02*X40450D01*
Y47750D01*
X44550D01*
Y55250D01*
G37*
G36*
X54550D02*X50450D01*
Y47750D01*
X54550D01*
Y55250D01*
G37*
G36*
X64550D02*X60450D01*
Y47750D01*
X64550D01*
Y55250D01*
G37*
M02*
