G04 start of page 6 for group -4063 idx -4063 *
G04 Title: (unknown), componentmask *
G04 Creator: pcb 20110918 *
G04 CreationDate: Wed 06 Feb 2013 04:02:48 AM GMT UTC *
G04 For: railfan *
G04 Format: Gerber/RS-274X *
G04 PCB-Dimensions: 175000 175000 *
G04 PCB-Coordinate-Origin: lower left *
%MOIN*%
%FSLAX25Y25*%
%LNTOPMASK*%
%ADD45R,0.0572X0.0572*%
%ADD44R,0.0297X0.0297*%
%ADD43R,0.0177X0.0177*%
%ADD42C,0.1500*%
%ADD41C,0.0760*%
%ADD40C,0.0660*%
%ADD39C,0.0001*%
G54D39*G36*
X79200Y53300D02*Y46700D01*
X85800D01*
Y53300D01*
X79200D01*
G37*
G54D40*X92500Y50000D03*
G54D41*X90000Y67000D03*
X80000D03*
X100000D03*
G54D39*G36*
X124200Y53300D02*Y46700D01*
X130800D01*
Y53300D01*
X124200D01*
G37*
G54D40*X117500Y50000D03*
X107500D03*
G54D39*G36*
X69200Y90800D02*Y84200D01*
X75800D01*
Y90800D01*
X69200D01*
G37*
G54D40*X82500Y87500D03*
X92500D03*
X102500D03*
G54D41*X95000Y77000D03*
G54D42*X107500Y102000D03*
G54D41*X85000Y77000D03*
X75000D03*
G54D42*X67500Y102000D03*
G54D43*X52940Y96895D02*Y94597D01*
G54D44*X127107Y95468D02*X127893D01*
X127107Y92500D02*X127893D01*
X137607Y95468D02*X138393D01*
X137607Y92500D02*X138393D01*
X137607Y79500D02*X138393D01*
X137607Y82468D02*X138393D01*
X127107Y79532D02*X127893D01*
X127107Y82500D02*X127893D01*
G54D43*X45060Y80403D02*Y78105D01*
X47030Y80403D02*Y78105D01*
X49000Y80403D02*Y78105D01*
X50970Y80403D02*Y78105D01*
X52940Y80403D02*Y78105D01*
G54D45*X67607Y47457D02*X68393D01*
X67607Y54543D02*X68393D01*
G54D43*X50970Y96895D02*Y94597D01*
X49000Y96895D02*Y94597D01*
X47030Y96895D02*Y94597D01*
X45060Y96895D02*Y94597D01*
G54D45*X33064Y91043D02*X33850D01*
X33064Y83957D02*X33850D01*
M02*
