M48
INCH
T38C0.020
T37C0.128
T36C0.035
T35C0.038
%
T38
X005300Y008450
X004750Y008450
X004650Y010450
X004250Y010100
X003750Y010250
X003300Y010250
X009500Y005900
X011950Y007950
X013050Y008750
X013500Y008750
T36
X010000Y006700
X009000Y006700
X009500Y007700
X008500Y007700
X008000Y006700
X007500Y007700
T35
X007250Y008750
X008250Y008750
X009250Y008750
X010250Y008750
X008250Y005000
X009250Y005000
T37
X010750Y010200
X006750Y010200
M30
